<svg xmlns="http://www.w3.org/2000/svg" xmlns:svg="http://www.w3.org/2000/svg" xmlns:xlink="http://www.w3.org/1999/xlink" id="svg5" width="670.655" height="268.52" version="1.1" viewBox="0 0 177.444 71.046" xml:space="preserve"><defs id="defs2"><linearGradient id="linearGradient6451"><stop style="stop-color:#7954f6;stop-opacity:1" id="stop6447" offset="0"/><stop style="stop-color:#d25161;stop-opacity:1" id="stop6449" offset="1"/></linearGradient><linearGradient id="linearGradient6453" x1="83.936" x2="103.061" y1="69.933" y2="57.748" gradientUnits="userSpaceOnUse" xlink:href="#linearGradient6451"/></defs><g id="layer1" transform="translate(-11.863216,-8.1333309)"><g id="g17335" transform="translate(3.9686896,3.9687878)"><path d="m 87.510577,23.596382 q -1.357858,0 -2.380902,-0.502222 -1.023044,-0.520822 -1.599669,-1.432261 -0.558024,-0.93004 -0.558024,-2.157693 v -5.766248 q 0,-1.246254 0.558024,-2.157693 0.576625,-0.911439 1.599669,-1.413661 1.023044,-0.520822 2.380902,-0.520822 1.376459,0 2.380903,0.520822 1.023044,0.502222 1.581068,1.413661 0.576624,0.911439 0.576624,2.157693 h -2.79012 q 0,-0.818435 -0.46502,-1.246254 -0.446419,-0.427818 -1.283455,-0.427818 -0.837036,0 -1.302056,0.427818 -0.446419,0.427819 -0.446419,1.246254 v 5.766248 q 0,0.799834 0.446419,1.246253 0.46502,0.427819 1.302056,0.427819 0.837036,0 1.283455,-0.427819 0.46502,-0.446419 0.46502,-1.246253 V 18.239351 H 87.250166 V 15.87705 h 4.799006 v 3.627156 q 0,1.227653 -0.576624,2.157693 -0.558024,0.911439 -1.581068,1.432261 -1.004444,0.502222 -2.380903,0.502222 z" style="font-weight:800;font-size:18.6008px;font-family:'JetBrains Mono';-inkscape-font-specification:'JetBrains Mono Ultra-Bold';fill:#000;stroke-width:.465023" id="path271"/><path d="m 94.318441,23.410374 v -2.511108 h 3.385346 v -5.208224 h -3.01333 v -2.511108 h 5.803453 v 7.719332 h 2.93892 v 2.511108 z m 4.6502,-11.84871 q -0.762633,0 -1.227653,-0.390616 -0.446419,-0.390617 -0.446419,-1.060246 0,-0.6696288 0.446419,-1.0602456 0.46502,-0.3906168 1.227653,-0.3906168 0.762633,0 1.209049,0.3906168 0.46502,0.3906168 0.46502,1.0602456 0,0.669629 -0.46502,1.060246 -0.446416,0.390616 -1.209049,0.390616 z" style="font-weight:800;font-size:18.6008px;font-family:'JetBrains Mono';-inkscape-font-specification:'JetBrains Mono Ultra-Bold';fill:#000;stroke-width:.465023" id="path273"/><path d="m 110.78012,23.410374 q -1.56247,0 -2.45531,-0.892839 -0.89283,-0.892838 -0.89283,-2.455305 v -4.371188 h -2.75292 v -2.511108 h 2.75292 V 10.29681 h 2.79012 v 2.883124 h 3.99917 v 2.511108 h -3.99917 v 4.278184 q 0,0.409217 0.2046,0.669629 0.22321,0.260411 0.63243,0.260411 h 3.06913 v 2.511108 z" style="font-weight:800;font-size:18.6008px;font-family:'JetBrains Mono';-inkscape-font-specification:'JetBrains Mono Ultra-Bold';fill:#000;stroke-width:.465023" id="path275"/><path d="M 116.56494,23.410374 V 9.83179 h 2.79012 v 5.282627 h 3.12493 V 9.83179 h 2.79012 v 13.578584 h -2.79012 v -5.784849 h -3.12493 v 5.784849 z" style="font-weight:800;font-size:18.6008px;font-family:'JetBrains Mono';-inkscape-font-specification:'JetBrains Mono Ultra-Bold';fill:#000;stroke-width:.465023" id="path277"/><path d="m 132.07798,23.596382 q -2.06469,0 -3.23654,-1.116048 -1.15325,-1.116048 -1.15325,-3.050531 v -6.249869 h 2.79012 v 6.231268 q 0,1.767076 1.59967,1.767076 0.76263,0 1.17185,-0.446419 0.42782,-0.46502 0.42782,-1.320657 v -6.231268 h 2.79012 v 6.249869 q 0,1.953084 -1.17185,3.069132 -1.17185,1.097447 -3.21794,1.097447 z" style="font-weight:800;font-size:18.6008px;font-family:'JetBrains Mono';-inkscape-font-specification:'JetBrains Mono Ultra-Bold';fill:#000;stroke-width:.465023" id="path279"/><path d="m 144.39168,23.596382 q -1.02305,0 -1.74848,-0.520823 -0.72543,-0.539423 -1.06024,-1.506664 v 1.841479 h -2.69712 V 9.83179 h 2.79012 v 2.79012 l -0.0744,2.343701 q 0.33481,-0.948641 1.04164,-1.450863 0.72543,-0.520822 1.74848,-0.520822 1.48806,0 2.3995,1.097447 0.91144,1.078846 0.91144,2.901725 v 2.604112 q 0,1.822878 -0.91144,2.920325 -0.91144,1.078847 -2.3995,1.078847 z m -1.07885,-2.418104 q 0.76263,0 1.17185,-0.427819 0.42782,-0.446419 0.42782,-1.246253 v -2.418104 q 0,-0.818435 -0.42782,-1.246254 -0.40922,-0.427818 -1.17185,-0.427818 -0.79983,0 -1.22765,0.46502 -0.40922,0.446419 -0.40922,1.302056 v 2.232096 q 0,0.855637 0.40922,1.320657 0.42782,0.446419 1.22765,0.446419 z" style="font-weight:800;font-size:18.6008px;font-family:'JetBrains Mono';-inkscape-font-specification:'JetBrains Mono Ultra-Bold';fill:#000;stroke-width:.465023" id="path281"/><path d="M 83.306797,46.933001 82.041942,33.354418 h 2.213495 l 0.68823,9.07719 q 0.0186,0.260411 0.0372,0.744032 0.0372,0.46502 0.0558,0.985842 0.0372,0.502222 0.0372,0.911439 0.0372,-0.409217 0.0744,-0.911439 0.0558,-0.520822 0.093,-0.985842 0.0558,-0.483621 0.0744,-0.744032 l 1.078846,-9.07719 h 2.120491 l 1.041645,9.07719 q 0.0372,0.260411 0.0744,0.744032 0.0558,0.46502 0.111605,0.985842 0.0558,0.502222 0.093,0.911439 0.0186,-0.409217 0.0372,-0.911439 0.0186,-0.520822 0.0372,-0.985842 0.0372,-0.483621 0.0558,-0.744032 l 0.632427,-9.07719 h 2.232096 l -1.357858,13.578583 h -2.901725 l -0.911439,-9.021387 q -0.0186,-0.316214 -0.0744,-0.818436 -0.0372,-0.520822 -0.0744,-1.078846 -0.0372,-0.558024 -0.0744,-0.985842 -0.0186,0.427818 -0.0558,0.985842 -0.0372,0.558024 -0.0744,1.078846 -0.0372,0.502222 -0.0744,0.818436 l -1.004443,9.021387 z" style="font-weight:800;font-size:18.6008px;font-family:'JetBrains Mono';-inkscape-font-specification:'JetBrains Mono Ultra-Bold';fill:#000;stroke-width:.465023" id="path283"/><path d="m 98.596625,47.119009 q -1.357858,0 -2.362302,-0.502221 -1.004443,-0.520823 -1.562467,-1.432262 -0.539423,-0.93004 -0.539423,-2.157692 V 40.60873 q 0,-1.227653 0.539423,-2.139092 0.558024,-0.93004 1.562467,-1.432262 1.004444,-0.520822 2.362302,-0.520822 1.376459,0 2.362305,0.520822 1.00444,0.502222 1.54386,1.432262 0.55803,0.911439 0.55803,2.139092 v 2.418104 q 0,1.227652 -0.55803,2.157692 -0.53942,0.911439 -1.54386,1.432262 -0.985846,0.502221 -2.362305,0.502221 z m 0,-2.418104 q 0.818435,0 1.246254,-0.427818 0.427821,-0.446419 0.427821,-1.246253 V 40.60873 q 0,-0.818436 -0.427821,-1.246254 -0.427819,-0.427818 -1.246254,-0.427818 -0.799834,0 -1.246254,0.427818 -0.427818,0.427818 -0.427818,1.246254 v 2.418104 q 0,0.799834 0.427818,1.246253 0.44642,0.427818 1.246254,0.427818 z" style="font-weight:800;font-size:18.6008px;font-family:'JetBrains Mono';-inkscape-font-specification:'JetBrains Mono Ultra-Bold';fill:#000;stroke-width:.465023" id="path285"/><path d="M 105.7765,46.933001 V 36.702562 h 2.69712 v 1.934483 q 0.22321,-0.985843 0.96724,-1.543867 0.76264,-0.576624 1.89728,-0.576624 1.54387,0 2.41811,1.041644 0.87424,1.041645 0.87424,2.864524 v 1.023044 h -2.79012 V 40.60873 q 0,-0.799835 -0.42782,-1.227653 -0.42782,-0.446419 -1.20905,-0.446419 -0.78124,0 -1.20906,0.502221 -0.42782,0.483621 -0.42782,1.39506 v 6.101062 z" style="font-weight:800;font-size:18.6008px;font-family:'JetBrains Mono';-inkscape-font-specification:'JetBrains Mono Ultra-Bold';fill:#000;stroke-width:.465023" id="path287"/><path d="M 116.65794,46.933001 V 33.354418 h 2.79012 v 7.21711 h 1.41367 l 2.13909,-3.868966 h 3.06913 l -2.84592,5.003615 2.90172,5.226824 h -3.12493 l -2.1577,-4.017772 h -1.39506 v 4.017772 z" style="font-weight:800;font-size:18.6008px;font-family:'JetBrains Mono';-inkscape-font-specification:'JetBrains Mono Ultra-Bold';fill:#000;stroke-width:.465023" id="path289"/><path d="M 130.03189,46.933001 V 40.60873 h -2.71572 v -2.511108 h 2.71572 v -1.581068 q 0,-1.432262 0.96724,-2.287899 0.98584,-0.874237 2.56691,-0.874237 h 2.99473 v 2.418104 h -2.90172 q -0.37202,0 -0.61383,0.24181 -0.22321,0.22321 -0.22321,0.595226 v 1.488064 h 3.73876 v 2.511108 h -3.73876 v 6.324271 z" style="font-weight:800;font-size:18.6008px;font-family:'JetBrains Mono';-inkscape-font-specification:'JetBrains Mono Ultra-Bold';fill:#000;stroke-width:.465023" id="path291"/><path d="m 145.0055,46.933001 q -1.07884,0 -1.89728,-0.446419 -0.81843,-0.46502 -1.28345,-1.283455 -0.44642,-0.818435 -0.44642,-1.897281 v -7.44032 h -3.25514 v -2.511108 h 6.04526 v 9.858424 q 0,0.539423 0.29761,0.874237 0.31621,0.334814 0.81844,0.334814 h 2.88312 v 2.511108 z" style="font-weight:800;font-size:18.6008px;font-family:'JetBrains Mono';-inkscape-font-specification:'JetBrains Mono Ultra-Bold';fill:#000;stroke-width:.465023" id="path293"/><path d="m 154.39888,47.119009 q -1.35786,0 -2.3623,-0.502221 -1.00444,-0.520823 -1.56247,-1.432262 -0.53942,-0.93004 -0.53942,-2.157692 V 40.60873 q 0,-1.227653 0.53942,-2.139092 0.55803,-0.93004 1.56247,-1.432262 1.00444,-0.520822 2.3623,-0.520822 1.37646,0 2.3623,0.520822 1.00445,0.502222 1.54387,1.432262 0.55802,0.911439 0.55802,2.139092 v 2.418104 q 0,1.227652 -0.55802,2.157692 -0.53942,0.911439 -1.54387,1.432262 -0.98584,0.502221 -2.3623,0.502221 z m 0,-2.418104 q 0.81844,0 1.24626,-0.427818 0.42781,-0.446419 0.42781,-1.246253 V 40.60873 q 0,-0.818436 -0.42781,-1.246254 -0.42782,-0.427818 -1.24626,-0.427818 -0.79983,0 -1.24625,0.427818 -0.42782,0.427818 -0.42782,1.246254 v 2.418104 q 0,0.799834 0.42782,1.246253 0.44642,0.427818 1.24625,0.427818 z" style="font-weight:800;font-size:18.6008px;font-family:'JetBrains Mono';-inkscape-font-specification:'JetBrains Mono Ultra-Bold';fill:#000;stroke-width:.465023" id="path295"/><path d="m 161.61596,46.933001 -1.54387,-10.230439 h 2.13909 l 0.79984,5.58024 q 0.093,0.70683 0.1488,1.506664 0.0558,0.799835 0.093,1.339258 0.0372,-0.539423 0.093,-1.339258 0.0558,-0.799834 0.18601,-1.506664 l 0.98584,-5.58024 h 2.12049 l 0.94864,5.58024 q 0.13021,0.70683 0.20461,1.525265 0.0744,0.799834 0.11161,1.339258 0.0372,-0.539424 0.0744,-1.339258 0.0372,-0.818435 0.14881,-1.525265 l 0.83703,-5.58024 h 2.08329 l -1.56246,10.230439 h -2.79012 l -0.83704,-5.766247 q -0.0744,-0.539424 -0.16741,-1.283456 -0.093,-0.744032 -0.1302,-1.227652 0,0.316213 -0.0558,0.781233 -0.0558,0.46502 -0.11161,0.93004 -0.0558,0.446419 -0.1116,0.799835 l -0.85564,5.766247 z" style="font-weight:800;font-size:18.6008px;font-family:'JetBrains Mono';-inkscape-font-specification:'JetBrains Mono Ultra-Bold';fill:#000;stroke-width:.465023" id="path297"/><path d="m 176.29196,47.119009 q -1.26485,0 -2.21349,-0.390616 -0.94864,-0.409218 -1.48807,-1.116048 -0.52082,-0.706831 -0.52082,-1.655471 h 2.73432 q 0,0.520822 0.39062,0.781233 0.39061,0.260411 1.09744,0.260411 h 0.81844 q 0.76263,0 1.17185,-0.260411 0.42782,-0.260411 0.42782,-0.744032 0,-0.46502 -0.33482,-0.669629 -0.33481,-0.223209 -1.02304,-0.297612 l -2.3437,-0.279012 q -1.35786,-0.167408 -2.08329,-1.004444 -0.72543,-0.855636 -0.72543,-2.120491 0,-3.106333 3.98057,-3.106333 h 0.87424 q 1.87868,0 2.99472,0.818435 1.11605,0.818435 1.11605,2.194894 h -2.73431 q 0,-0.446419 -0.37202,-0.688229 -0.35342,-0.241811 -1.00444,-0.241811 h -0.87424 q -0.65103,0 -0.98584,0.241811 -0.33482,0.24181 -0.33482,0.669628 0,0.427819 0.31622,0.576625 0.33481,0.148807 0.93004,0.22321 l 2.23209,0.279012 q 1.50667,0.186008 2.2693,1.060245 0.76263,0.874238 0.76263,2.3065 0,1.506664 -1.07884,2.3437 -1.07885,0.818435 -3.18074,0.818435 z" style="font-weight:800;font-size:18.6008px;font-family:'JetBrains Mono';-inkscape-font-specification:'JetBrains Mono Ultra-Bold';fill:#000;stroke-width:.465023" id="path299"/><path id="path301" style="font-weight:800;font-size:18.6008px;font-family:'JetBrains Mono';-inkscape-font-specification:'JetBrains Mono Ultra-Bold';fill:url(#linearGradient6453);fill-opacity:1;stroke-width:.465023" d="m 83.065214,56.877148 v 13.5785 h 2.790011 v -5.821867 h 1.320332 l 2.32544,5.821867 h 3.05046 l -2.938839,-7.16132 2.827218,-6.41718 h -3.013253 l -2.269629,5.319572 h -1.301729 v -5.319572 z m 13.206429,0.465088 v 2.883028 H 93.51884 v 2.510958 h 2.752803 v 4.37131 c 0,1.041643 0.297744,1.859922 0.892969,2.455147 0.595225,0.595225 1.413503,0.892969 2.455147,0.892969 h 3.348121 V 67.94469 h -3.069068 c -0.272812,0 -0.483714,-0.08684 -0.63252,-0.260449 -0.136406,-0.173607 -0.204638,-0.396915 -0.204638,-0.669727 v -4.278292 h 3.999236 v -2.510958 h -3.999236 v -2.883028 z"/></g><path id="path1489" style="fill:#000;stroke-width:.313188" d="M 47.338983,12.084431 A 31.54873,31.54873 0 0 0 15.790121,43.633291 31.54873,31.54873 0 0 0 47.338983,75.182152 31.54873,31.54873 0 0 0 78.887228,43.633291 31.54873,31.54873 0 0 0 47.338983,12.084431 Z M 36.480145,20.484248 47.106539,31.11064 H 36.480145 Z m 21.784352,0 V 31.11064 H 47.638105 Z M 36.480145,31.642204 h 10.626394 v 10.626392 z m 11.15796,0 H 58.264497 L 47.638105,42.268596 Z m -11.15796,0.796428 10.626394,10.626393 H 36.480145 Z m 21.784352,0 V 43.065025 H 47.638105 Z M 25.322189,43.596589 35.949192,54.222981 H 25.322189 Z m 21.78435,0 V 54.222981 H 36.480145 Z m 0.531566,0 10.626392,10.626392 H 47.638105 Z m -11.15796,11.157345 h 10.626394 v 10.627003 z m 11.15796,0 H 58.264497 L 47.638105,65.380937 Z m -11.15796,0.797652 10.626394,10.626393 H 36.480145 Z m 21.784352,0 V 66.177979 H 47.638105 Z"/></g></svg>