<svg xmlns="http://www.w3.org/2000/svg" xmlns:svg="http://www.w3.org/2000/svg" id="svg5" width="238.477" height="238.48" version="1.1" viewBox="0 0 63.097 63.098" xml:space="preserve"><g id="layer1" transform="translate(-89.525991,3.1613693)"><g id="g17335" transform="translate(3.9686896,3.9687878)"><path id="path1489" style="fill:#fff;stroke-width:.313188" d="M 117.10616,-7.1301571 A 31.54873,31.54873 0 0 0 85.557301,24.418703 31.54873,31.54873 0 0 0 117.10616,55.967564 31.54873,31.54873 0 0 0 148.65441,24.418703 31.54873,31.54873 0 0 0 117.10616,-7.1301571 Z m -10.85884,8.3998172 10.6264,10.6263919 h -10.6264 z m 21.78436,0 V 11.896052 h -10.6264 z M 106.24732,12.427616 h 10.6264 v 10.626392 z m 11.15796,0 h 10.6264 l -10.6264,10.626392 z m -11.15796,0.796428 10.6264,10.626393 h -10.6264 z m 21.78436,0 v 10.626393 h -10.6264 z M 95.089371,24.382001 105.71637,35.008393 H 95.089371 Z m 21.784349,0 v 10.626392 h -10.6264 z m 0.53156,0 10.6264,10.626392 h -10.6264 z m -11.15796,11.157345 h 10.6264 v 10.627003 z m 11.15796,0 h 10.6264 l -10.6264,10.627003 z m -11.15796,0.797652 10.6264,10.626393 h -10.6264 z m 21.78436,0 v 10.626393 h -10.6264 z"/></g></g></svg>